# Blender v3.3.1 OBJ File: 'scene_complete_part03.blend'
# www.blender.org
mtllib collision5.mtl
o collision_sol.004_Plan.009
v 4585.888672 63.959621 1583.893066
v 4585.888672 63.959621 1647.484619
v 4585.888672 323.925415 1583.893066
v 4585.888672 323.925415 1647.484619
v 4585.888672 577.323486 1583.893066
v 4585.888672 577.323486 1647.484619
v 4585.888672 661.593750 1583.893066
v 4585.888672 661.593750 1647.484619
v 4585.888672 63.959621 1472.907227
v 4585.888672 323.925415 1472.907227
v 4585.888672 577.323486 1472.907227
v 4585.888672 661.593750 1472.907227
v 4585.888672 63.959621 1341.046875
v 4585.888672 323.925415 1341.046875
v 4585.888672 577.323486 1341.046875
vn 1.0000 0.0000 0.0000
usemtl collision
s off
f 7//1 5//1 11//1 12//1
f 4//1 3//1 5//1 6//1
f 2//1 1//1 3//1 4//1
f 5//1 3//1 10//1 11//1
f 6//1 5//1 7//1 8//1
f 3//1 1//1 9//1 10//1
f 11//1 10//1 14//1 15//1
f 10//1 9//1 13//1 14//1
o collision_sol.005_Plan.010
v -2740.656982 63.959621 791.834106
v -2740.656982 63.959621 395.804596
v -2739.421387 63.963882 1184.810059
v -2740.656982 63.959621 197.789841
v -2740.656982 63.959621 989.848877
v -2542.642334 63.959621 791.834106
v -2740.656982 63.959621 593.819336
v -2542.642334 63.959621 593.819336
v -2740.656982 231.874115 989.848877
v -2740.656982 231.874115 791.834106
v -2740.656982 231.874115 593.819336
v -2740.656982 231.874115 395.804596
v -2740.656982 231.874115 197.789841
v -2740.656982 231.874115 1187.863525
v -2740.656982 407.255829 989.848877
v -2740.656982 407.255829 791.834106
v -2740.656982 407.255829 593.819336
v -2740.656982 407.255829 395.804596
v -2740.656982 407.255829 197.789841
v -2740.656982 407.255829 1187.863525
v -2740.656982 533.017944 989.848877
v -2740.656982 533.017944 791.834106
v -2740.656982 533.017944 593.819336
v -2740.656982 533.017944 395.804596
v -2740.656982 533.017944 197.789841
v -2740.656982 533.017944 1187.863525
v -2739.421387 63.205570 1309.918457
v -2740.656982 231.115799 1312.972168
v -2740.656982 406.497528 1312.972168
v -2740.656982 532.259644 1312.972168
v -2739.421387 62.113350 1490.115967
v -2740.656982 230.023575 1493.169434
v -2740.656982 405.405304 1493.169434
v -2740.656982 531.167419 1493.169434
vn 1.0000 0.0000 0.0000
vn 0.0000 1.0000 0.0000
vn 1.0000 0.0037 -0.0031
vn 1.0000 0.0074 0.0000
usemtl collision
s off
f 17//2 19//2 28//2 27//2
f 16//3 21//3 23//3 22//3
f 20//2 16//2 25//2 24//2
f 25//2 26//2 32//2 31//2
f 24//2 25//2 31//2 30//2
f 29//2 24//2 30//2 35//2
f 22//2 17//2 27//2 26//2
f 18//4 20//4 24//4 29//4
f 16//2 22//2 26//2 25//2
f 30//2 31//2 37//2 36//2
f 35//2 30//2 36//2 41//2
f 26//2 27//2 33//2 32//2
f 27//2 28//2 34//2 33//2
f 31//2 32//2 38//2 37//2
f 32//2 33//2 39//2 38//2
f 33//2 34//2 40//2 39//2
f 44//2 45//2 49//2 48//2
f 43//2 44//2 48//2 47//2
f 42//5 43//5 47//5 46//5
f 29//2 35//2 44//2 43//2
f 18//5 29//5 43//5 42//5
f 35//2 41//2 45//2 44//2
o collision_sol.006_Plan.011
v -9671.173828 63.959621 -0.224915
v -9671.173828 63.959621 1583.893066
v -9671.173828 63.959621 791.834106
v -9671.173828 63.959621 1187.863525
v -9671.173828 63.959621 395.804596
v -9671.173828 63.959621 1979.922607
v -9671.173828 63.959621 -198.239670
v -9671.173828 63.959621 1781.907959
v -9671.173828 63.959621 593.819336
v -9671.173828 63.959621 197.789841
v -9671.173828 63.959621 1385.878418
v -9671.173828 63.959621 989.848877
v -9671.173828 63.959621 2078.930176
v -9671.173828 324.860016 -0.224915
v -9671.173828 324.860016 1583.893066
v -9671.173828 324.860016 791.834106
v -9671.173828 324.860016 1187.863525
v -9671.173828 324.860016 395.804596
v -9671.173828 324.860016 1979.922607
v -9671.173828 324.860016 -198.239670
v -9671.173828 324.860016 2078.930176
v -9671.173828 324.860016 1781.907959
v -9671.173828 324.860016 593.819336
v -9671.173828 324.860016 197.789841
v -9671.173828 324.860016 1385.878418
v -9671.173828 324.860016 989.848877
v -9671.173828 498.963623 -0.224915
v -9671.173828 498.963623 1583.893066
v -9671.173828 498.963623 791.834106
v -9671.173828 498.963623 1187.863525
v -9671.173828 498.963623 395.804596
v -9671.173828 498.963623 1979.922607
v -9671.173828 498.963623 -198.239670
v -9671.173828 498.963623 2078.930176
v -9671.173828 498.963623 1781.907959
v -9671.173828 498.963623 593.819336
v -9671.173828 498.963623 197.789841
v -9671.173828 498.963623 1385.878418
v -9671.173828 498.963623 989.848877
v -9671.173828 63.959621 1647.484619
v -9671.173828 324.860016 1647.484619
v -9671.173828 498.963623 1647.484619
vn 1.0000 0.0000 0.0000
usemtl collision
s off
f 89//6 51//6 64//6 90//6
f 54//6 59//6 73//6 67//6
f 62//6 55//6 68//6 70//6
f 59//6 50//6 63//6 73//6
f 53//6 61//6 75//6 66//6
f 90//6 64//6 77//6 91//6
f 66//6 75//6 88//6 79//6
f 70//6 68//6 81//6 83//6
f 75//6 65//6 78//6 88//6
f 63//6 69//6 82//6 76//6
f 64//6 74//6 87//6 77//6
f 74//6 66//6 79//6 87//6
f 55//6 57//6 71//6 68//6
f 50//6 56//6 69//6 63//6
f 60//6 53//6 66//6 74//6
f 51//6 60//6 74//6 64//6
f 58//6 54//6 67//6 72//6
f 52//6 58//6 72//6 65//6
f 61//6 52//6 65//6 75//6
f 68//6 71//6 84//6 81//6
f 72//6 67//6 80//6 85//6
f 65//6 72//6 85//6 78//6
f 73//6 63//6 76//6 86//6
f 67//6 73//6 86//6 80//6
f 71//6 90//6 91//6 84//6
f 57//6 89//6 90//6 71//6
